<?xml version="1.0" encoding="UTF-8" standalone="no"?>
<!DOCTYPE svg PUBLIC "-//W3C//DTD SVG 20010904//EN"
              "http://www.w3.org/TR/2001/REC-SVG-20010904/DTD/svg10.dtd">

<svg xmlns="http://www.w3.org/2000/svg"
    width="100%" height="75px"
    viewBox="0 0 2880 481">
  <defs>
    <linearGradient id="gradient" x1="50%" y1="0%" x2="50%" y2="100%">
      <stop offset="0%" stop-color="#ee273740"></stop>
      <stop offset="90%" stop-color="#808080"></stop>
    </linearGradient>
  </defs>
  <path id="back"
        fill="url(#gradient)"
        d="M 1256.00,1.00
           C 1256.00,1.00 1256.00,320.00 1256.00,320.00
             1256.00,320.00 1219.00,320.00 1219.00,320.00
             1219.00,320.00 1219.00,129.00 1219.00,129.00
             1219.00,129.00 1181.00,129.00 1181.00,129.00
             1181.00,129.00 1181.00,225.00 1181.00,225.00
             1181.00,225.00 1144.00,225.00 1144.00,225.00
             1144.00,225.00 1144.00,257.00 1144.00,257.00
             1144.00,257.00 1107.00,257.00 1107.00,257.00
             1107.00,257.00 1107.00,65.00 1107.00,65.00
             1107.00,65.00 997.00,65.00 997.00,65.00
             997.00,65.00 997.00,257.00 997.00,257.00
             997.00,257.00 960.00,257.00 960.00,257.00
             960.00,257.00 960.00,65.00 960.00,65.00
             960.00,65.00 923.00,65.00 923.00,65.00
             923.00,65.00 923.00,33.00 923.00,33.00
             923.00,33.00 886.00,33.00 886.00,33.00
             886.00,33.00 886.00,289.00 886.00,289.00
             886.00,289.00 849.00,289.00 849.00,289.00
             849.00,289.00 849.00,257.00 849.00,257.00
             849.00,257.00 812.00,257.00 812.00,257.00
             812.00,257.00 812.00,161.00 812.00,161.00
             812.00,161.00 776.00,161.00 776.00,161.00
             776.00,161.00 776.00,225.00 776.00,225.00
             776.00,225.00 701.00,225.00 701.00,225.00
             701.00,225.00 701.00,257.00 701.00,257.00
             701.00,257.00 664.00,257.00 664.00,257.00
             664.00,257.00 664.00,193.00 664.00,193.00
             664.00,193.00 627.00,193.00 627.00,193.00
             627.00,193.00 627.00,33.00 627.00,33.00
             627.00,33.00 591.00,33.00 591.00,33.00
             591.00,33.00 591.00,97.00 591.00,97.00
             591.00,97.00 554.00,97.00 554.00,97.00
             554.00,97.00 554.00,320.00 554.00,320.00
             554.00,320.00 517.00,320.00 517.00,320.00
             517.00,320.00 517.00,97.00 517.00,97.00
             517.00,97.00 480.00,97.00 480.00,97.00
             480.00,97.00 480.00,320.00 480.00,320.00
             480.00,320.00 443.00,320.00 443.00,320.00
             443.00,320.00 443.00,33.00 443.00,33.00
             443.00,33.00 406.00,33.00 406.00,33.00
             406.00,33.00 406.00,225.00 406.00,225.00
             406.00,225.00 332.00,225.00 332.00,225.00
             332.00,225.00 332.00,161.00 332.00,161.00
             332.00,161.00 296.00,161.00 296.00,161.00
             296.00,161.00 296.00,33.00 296.00,33.00
             296.00,33.00 258.00,33.00 258.00,33.00
             258.00,33.00 258.00,129.00 258.00,129.00
             258.00,129.00 221.00,129.00 221.00,129.00
             221.00,129.00 221.00,289.00 221.00,289.00
             221.00,289.00 184.00,289.00 184.00,289.00
             184.00,289.00 184.00,193.00 184.00,193.00
             184.00,193.00 147.00,193.00 147.00,193.00
             147.00,193.00 147.00,161.00 147.00,161.00
             147.00,161.00 111.00,161.00 111.00,161.00
             111.00,161.00 111.00,33.00 111.00,33.00
             111.00,33.00 74.00,33.00 74.00,33.00
             74.00,33.00 74.00,225.00 74.00,225.00
             74.00,225.00 37.00,225.00 37.00,225.00
             37.00,225.00 37.00,129.00 37.00,129.00
             37.00,129.00 0.00,129.00 0.00,129.00
             0.00,129.00 0.00,481.00 0.00,481.00
             0.00,481.00 2880.00,481.00 2880.00,481.00
             2880.00,481.00 2880.00,1.00 2880.00,1.00
             2880.00,1.00 2843.00,1.00 2843.00,1.00
             2843.00,1.00 2843.00,225.00 2843.00,225.00
             2843.00,225.00 2806.00,225.00 2806.00,225.00
             2806.00,225.00 2806.00,65.00 2806.00,65.00
             2806.00,65.00 2769.00,65.00 2769.00,65.00
             2769.00,65.00 2769.00,257.00 2769.00,257.00
             2769.00,257.00 2732.00,257.00 2732.00,257.00
             2732.00,257.00 2732.00,225.00 2732.00,225.00
             2732.00,225.00 2696.00,225.00 2696.00,225.00
             2696.00,225.00 2696.00,289.00 2696.00,289.00
             2696.00,289.00 2659.00,289.00 2659.00,289.00
             2659.00,289.00 2659.00,97.00 2659.00,97.00
             2659.00,97.00 2621.00,97.00 2621.00,97.00
             2621.00,97.00 2621.00,193.00 2621.00,193.00
             2621.00,193.00 2584.00,193.00 2584.00,193.00
             2584.00,193.00 2584.00,33.00 2584.00,33.00
             2584.00,33.00 2548.00,33.00 2548.00,33.00
             2548.00,33.00 2548.00,97.00 2548.00,97.00
             2548.00,97.00 2511.00,97.00 2511.00,97.00
             2511.00,97.00 2511.00,161.00 2511.00,161.00
             2511.00,161.00 2474.00,161.00 2474.00,161.00
             2474.00,161.00 2474.00,193.00 2474.00,193.00
             2474.00,193.00 2437.00,193.00 2437.00,193.00
             2437.00,193.00 2437.00,129.00 2437.00,129.00
             2437.00,129.00 2400.00,129.00 2400.00,129.00
             2400.00,129.00 2400.00,65.00 2400.00,65.00
             2400.00,65.00 2363.00,65.00 2363.00,65.00
             2363.00,65.00 2363.00,193.00 2363.00,193.00
             2363.00,193.00 2326.00,193.00 2326.00,193.00
             2326.00,193.00 2326.00,257.00 2326.00,257.00
             2326.00,257.00 2289.00,257.00 2289.00,257.00
             2289.00,257.00 2289.00,33.00 2289.00,33.00
             2289.00,33.00 2252.00,33.00 2252.00,33.00
             2252.00,33.00 2252.00,1.00 2252.00,1.00
             2252.00,1.00 2216.00,1.00 2216.00,1.00
             2216.00,1.00 2216.00,225.00 2216.00,225.00
             2216.00,225.00 2141.00,225.00 2141.00,225.00
             2141.00,225.00 2141.00,257.00 2141.00,257.00
             2141.00,257.00 2104.00,257.00 2104.00,257.00
             2104.00,257.00 2104.00,65.00 2104.00,65.00
             2104.00,65.00 2068.00,65.00 2068.00,65.00
             2068.00,65.00 2068.00,257.00 2068.00,257.00
             2068.00,257.00 2031.00,257.00 2031.00,257.00
             2031.00,257.00 2031.00,161.00 2031.00,161.00
             2031.00,161.00 1994.00,161.00 1994.00,161.00
             1994.00,161.00 1994.00,97.00 1994.00,97.00
             1994.00,97.00 1957.00,97.00 1957.00,97.00
             1957.00,97.00 1957.00,289.00 1957.00,289.00
             1957.00,289.00 1920.00,289.00 1920.00,289.00
             1920.00,289.00 1920.00,225.00 1920.00,225.00
             1920.00,225.00 1883.00,225.00 1883.00,225.00
             1883.00,225.00 1883.00,161.00 1883.00,161.00
             1883.00,161.00 1846.00,161.00 1846.00,161.00
             1846.00,161.00 1846.00,129.00 1846.00,129.00
             1846.00,129.00 1809.00,129.00 1809.00,129.00
             1809.00,129.00 1809.00,65.00 1809.00,65.00
             1809.00,65.00 1773.00,65.00 1773.00,65.00
             1773.00,65.00 1773.00,161.00 1773.00,161.00
             1773.00,161.00 1736.00,161.00 1736.00,161.00
             1736.00,161.00 1736.00,257.00 1736.00,257.00
             1736.00,257.00 1699.00,257.00 1699.00,257.00
             1699.00,257.00 1699.00,161.00 1699.00,161.00
             1699.00,161.00 1661.00,161.00 1661.00,161.00
             1661.00,161.00 1661.00,257.00 1661.00,257.00
             1661.00,257.00 1624.00,257.00 1624.00,257.00
             1624.00,257.00 1624.00,161.00 1624.00,161.00
             1624.00,161.00 1551.00,161.00 1551.00,161.00
             1551.00,161.00 1551.00,193.00 1551.00,193.00
             1551.00,193.00 1514.00,193.00 1514.00,193.00
             1514.00,193.00 1514.00,1.00 1514.00,1.00
             1514.00,1.00 1477.00,1.00 1477.00,1.00
             1477.00,1.00 1477.00,289.00 1477.00,289.00
             1477.00,289.00 1440.00,289.00 1440.00,289.00
             1440.00,289.00 1440.00,65.00 1440.00,65.00
             1440.00,65.00 1403.00,65.00 1403.00,65.00
             1403.00,65.00 1403.00,129.00 1403.00,129.00
             1403.00,129.00 1366.00,129.00 1366.00,129.00
             1366.00,129.00 1366.00,97.00 1366.00,97.00
             1366.00,97.00 1329.00,97.00 1329.00,97.00
             1329.00,97.00 1329.00,129.00 1329.00,129.00
             1329.00,129.00 1292.00,129.00 1292.00,129.00
             1292.00,129.00 1292.00,1.00 1292.00,1.00
             1292.00,1.00 1256.00,1.00 1256.00,1.00 Z" />
  <path id="front"
       fill="hsla(0, 0%, 100%, 1)"
       d="M 701.00,161.00
          C 701.00,161.00 701.00,353.00 701.00,353.00
            701.00,353.00 664.00,353.00 664.00,353.00
            664.00,353.00 664.00,257.00 664.00,257.00
            664.00,257.00 628.00,257.00 628.00,257.00
            628.00,257.00 628.00,321.00 628.00,321.00
            628.00,321.00 591.00,321.00 591.00,321.00
            591.00,321.00 591.00,417.00 591.00,417.00
            591.00,417.00 480.00,417.00 480.00,417.00
            480.00,417.00 480.00,193.00 480.00,193.00
            480.00,193.00 443.00,193.00 443.00,193.00
            443.00,193.00 443.00,481.00 443.00,481.00
            443.00,481.00 1514.00,481.00 1514.00,481.00
            1514.00,481.00 1514.00,289.00 1514.00,289.00
            1514.00,289.00 1477.00,289.00 1477.00,289.00
            1477.00,289.00 1477.00,257.00 1477.00,257.00
            1477.00,257.00 1440.00,257.00 1440.00,257.00
            1440.00,257.00 1440.00,289.00 1440.00,289.00
            1440.00,289.00 1403.00,289.00 1403.00,289.00
            1403.00,289.00 1403.00,321.00 1403.00,321.00
            1403.00,321.00 1366.00,321.00 1366.00,321.00
            1366.00,321.00 1366.00,353.00 1366.00,353.00
            1366.00,353.00 1329.00,353.00 1329.00,353.00
            1329.00,353.00 1329.00,225.00 1329.00,225.00
            1329.00,225.00 1293.00,225.00 1293.00,225.00
            1293.00,225.00 1293.00,385.00 1293.00,385.00
            1293.00,385.00 1256.00,385.00 1256.00,385.00
            1256.00,385.00 1256.00,449.00 1256.00,449.00
            1256.00,449.00 1219.00,449.00 1219.00,449.00
            1219.00,449.00 1219.00,193.00 1219.00,193.00
            1219.00,193.00 1181.00,193.00 1181.00,193.00
            1181.00,193.00 1181.00,417.00 1181.00,417.00
            1181.00,417.00 1144.00,417.00 1144.00,417.00
            1144.00,417.00 1144.00,385.00 1144.00,385.00
            1144.00,385.00 1107.00,385.00 1107.00,385.00
            1107.00,385.00 1107.00,257.00 1107.00,257.00
            1107.00,257.00 1071.00,257.00 1071.00,257.00
            1071.00,257.00 1071.00,321.00 1071.00,321.00
            1071.00,321.00 997.00,321.00 997.00,321.00
            997.00,321.00 997.00,257.00 997.00,257.00
            997.00,257.00 960.00,257.00 960.00,257.00
            960.00,257.00 960.00,417.00 960.00,417.00
            960.00,417.00 923.00,417.00 923.00,417.00
            923.00,417.00 923.00,385.00 923.00,385.00
            923.00,385.00 886.00,385.00 886.00,385.00
            886.00,385.00 886.00,321.00 886.00,321.00
            886.00,321.00 849.00,321.00 849.00,321.00
            849.00,321.00 849.00,385.00 849.00,385.00
            849.00,385.00 812.00,385.00 812.00,385.00
            812.00,385.00 812.00,193.00 812.00,193.00
            812.00,193.00 776.00,193.00 776.00,193.00
            776.00,193.00 776.00,417.00 776.00,417.00
            776.00,417.00 739.00,417.00 739.00,417.00
            739.00,417.00 739.00,161.00 739.00,161.00
            739.00,161.00 701.00,161.00 701.00,161.00 Z
          M 2031.00,161.00
          C 2031.00,161.00 2031.00,417.00 2031.00,417.00
            2031.00,417.00 1994.00,417.00 1994.00,417.00
            1994.00,417.00 1994.00,481.00 1994.00,481.00
            1994.00,481.00 2104.00,481.00 2104.00,481.00
            2104.00,481.00 2104.00,449.00 2104.00,449.00
            2104.00,449.00 2067.00,449.00 2067.00,449.00
            2067.00,449.00 2067.00,161.00 2067.00,161.00
            2067.00,161.00 2031.00,161.00 2031.00,161.00 Z
          M 258.00,193.00
          C 258.00,193.00 258.00,289.00 258.00,289.00
            258.00,289.00 221.00,289.00 221.00,289.00
            221.00,289.00 221.00,449.00 221.00,449.00
            221.00,449.00 184.00,449.00 184.00,449.00
            184.00,449.00 184.00,353.00 184.00,353.00
            184.00,353.00 147.00,353.00 147.00,353.00
            147.00,353.00 147.00,289.00 147.00,289.00
            147.00,289.00 111.00,289.00 111.00,289.00
            111.00,289.00 111.00,321.00 111.00,321.00
            111.00,321.00 74.00,321.00 74.00,321.00
            74.00,321.00 74.00,417.00 74.00,417.00
            74.00,417.00 37.00,417.00 37.00,417.00
            37.00,417.00 37.00,449.00 37.00,449.00
            37.00,449.00 0.00,449.00 0.00,449.00
            0.00,449.00 0.00,481.00 0.00,481.00
            0.00,481.00 406.00,481.00 406.00,481.00
            406.00,481.00 406.00,193.00 406.00,193.00
            406.00,193.00 369.00,193.00 369.00,193.00
            369.00,193.00 369.00,289.00 369.00,289.00
            369.00,289.00 333.00,289.00 333.00,289.00
            333.00,289.00 333.00,449.00 333.00,449.00
            333.00,449.00 296.00,449.00 296.00,449.00
            296.00,449.00 296.00,193.00 296.00,193.00
            296.00,193.00 258.00,193.00 258.00,193.00 Z
          M 2216.00,193.00
          C 2216.00,193.00 2216.00,449.00 2216.00,449.00
            2216.00,449.00 2179.00,449.00 2179.00,449.00
            2179.00,449.00 2179.00,417.00 2179.00,417.00
            2179.00,417.00 2141.00,417.00 2141.00,417.00
            2141.00,417.00 2141.00,481.00 2141.00,481.00
            2141.00,481.00 2474.00,481.00 2474.00,481.00
            2474.00,481.00 2474.00,257.00 2474.00,257.00
            2474.00,257.00 2437.00,257.00 2437.00,257.00
            2437.00,257.00 2437.00,193.00 2437.00,193.00
            2437.00,193.00 2400.00,193.00 2400.00,193.00
            2400.00,193.00 2400.00,449.00 2400.00,449.00
            2400.00,449.00 2363.00,449.00 2363.00,449.00
            2363.00,449.00 2363.00,225.00 2363.00,225.00
            2363.00,225.00 2289.00,225.00 2289.00,225.00
            2289.00,225.00 2289.00,289.00 2289.00,289.00
            2289.00,289.00 2252.00,289.00 2252.00,289.00
            2252.00,289.00 2252.00,193.00 2252.00,193.00
            2252.00,193.00 2216.00,193.00 2216.00,193.00 Z
          M 2658.00,193.00
          C 2658.00,193.00 2658.00,321.00 2658.00,321.00
            2658.00,321.00 2622.00,321.00 2622.00,321.00
            2622.00,321.00 2622.00,289.00 2622.00,289.00
            2622.00,289.00 2584.00,289.00 2584.00,289.00
            2584.00,289.00 2584.00,353.00 2584.00,353.00
            2584.00,353.00 2547.00,353.00 2547.00,353.00
            2547.00,353.00 2547.00,257.00 2547.00,257.00
            2547.00,257.00 2511.00,257.00 2511.00,257.00
            2511.00,257.00 2511.00,481.00 2511.00,481.00
            2511.00,481.00 2880.00,481.00 2880.00,481.00
            2880.00,481.00 2880.00,321.00 2880.00,321.00
            2880.00,321.00 2806.00,321.00 2806.00,321.00
            2806.00,321.00 2806.00,257.00 2806.00,257.00
            2806.00,257.00 2769.00,257.00 2769.00,257.00
            2769.00,257.00 2769.00,385.00 2769.00,385.00
            2769.00,385.00 2732.00,385.00 2732.00,385.00
            2732.00,385.00 2732.00,289.00 2732.00,289.00
            2732.00,289.00 2696.00,289.00 2696.00,289.00
            2696.00,289.00 2696.00,193.00 2696.00,193.00
            2696.00,193.00 2658.00,193.00 2658.00,193.00 Z
          M 1551.00,225.00
          C 1551.00,225.00 1551.00,481.00 1551.00,481.00
            1551.00,481.00 1957.00,481.00 1957.00,481.00
            1957.00,481.00 1957.00,353.00 1957.00,353.00
            1957.00,353.00 1920.00,353.00 1920.00,353.00
            1920.00,353.00 1920.00,385.00 1920.00,385.00
            1920.00,385.00 1883.00,385.00 1883.00,385.00
            1883.00,385.00 1883.00,417.00 1883.00,417.00
            1883.00,417.00 1846.00,417.00 1846.00,417.00
            1846.00,417.00 1846.00,225.00 1846.00,225.00
            1846.00,225.00 1809.00,225.00 1809.00,225.00
            1809.00,225.00 1809.00,321.00 1809.00,321.00
            1809.00,321.00 1772.00,321.00 1772.00,321.00
            1772.00,321.00 1772.00,225.00 1772.00,225.00
            1772.00,225.00 1736.00,225.00 1736.00,225.00
            1736.00,225.00 1736.00,417.00 1736.00,417.00
            1736.00,417.00 1662.00,417.00 1662.00,417.00
            1662.00,417.00 1662.00,225.00 1662.00,225.00
            1662.00,225.00 1624.00,225.00 1624.00,225.00
            1624.00,225.00 1624.00,353.00 1624.00,353.00
            1624.00,353.00 1587.00,353.00 1587.00,353.00
            1587.00,353.00 1587.00,225.00 1587.00,225.00
            1587.00,225.00 1551.00,225.00 1551.00,225.00 Z" />
</svg>
