<svg id="Ebene_1" data-name="Ebene 1" xmlns="http://www.w3.org/2000/svg" viewBox="0 0 313.31 313.31"><defs><style>.cls-1{fill:#ee2737;}</style></defs><polygon class="cls-1" points="209.13 131.1 187.71 131.1 221.45 189.53 188.1 247.3 209.51 247.3 242.87 189.54 209.13 131.1"/><polygon class="cls-1" points="217.22 117.1 250.95 175.53 261.66 156.98 227.92 98.55 161.22 98.55 150.51 117.1 217.22 117.1"/><polygon class="cls-1" points="194.57 170.98 161.22 228.75 93.75 228.75 104.46 247.3 171.93 247.3 205.28 189.53 194.57 170.98"/><polygon class="cls-1" points="209.13 66 142.43 66 108.69 124.43 119.39 142.98 153.13 84.55 219.84 84.55 209.13 66"/><polygon class="cls-1" points="96.37 196.2 63.02 138.43 52.31 156.98 85.67 214.75 153.13 214.75 163.84 196.2 96.37 196.2"/><polygon class="cls-1" points="125.88 182.2 92.52 124.43 126.26 66 104.84 66 71.1 124.43 104.46 182.2 125.88 182.2"/></svg>